<svg width="312" height="312" viewBox="0 0 312 312" fill="none" xmlns="http://www.w3.org/2000/svg">
<rect width="312" height="312" rx="75" fill="#131313"/>
<path d="M201.829 88.514C186.269 88.514 171.9 93.7392 160.506 102.477C163.142 105.046 165.608 107.787 167.819 110.7C177.257 103.419 189.075 99.0501 201.829 99.0501C230.823 99.0501 254.801 120.893 257.606 149.761H182.698C182.868 151.56 182.953 153.53 182.953 155.414C182.953 156.785 182.953 158.241 182.868 159.612H269V155.414C268.915 118.152 239.241 88.514 201.829 88.514ZM256.246 170.919C249.189 193.447 228.017 210.408 202.594 210.408C189.926 210.408 178.192 206.211 168.754 199.101C166.458 202.185 163.992 205.097 161.357 207.753C172.75 216.49 187.035 221.715 202.594 221.715C233.629 221.715 260.497 200.557 267.555 171.004H256.246V170.919Z" fill="url(#paint0_linear_805_2)"/>
<path d="M176.746 149.846C175.641 136.74 170.795 124.662 163.312 114.726C161.102 111.728 158.636 108.987 155.915 106.417C143.926 95.0241 127.771 88 110.001 88C73.0143 88 43 118.238 43 155.5C43 192.762 73.0143 223 110.001 223C128.196 223 144.691 215.719 156.765 203.898C159.486 201.242 161.952 198.33 164.248 195.246C171.56 185.138 176.151 172.975 176.916 159.697C177.001 158.327 177.002 156.956 177.002 155.5C177.002 153.615 176.916 151.645 176.746 149.846ZM118.673 174.431C118.588 174.431 118.588 174.431 118.673 174.431L109.831 183.339C106.005 187.28 100.903 189.164 95.8014 189.164C90.6998 189.164 85.6832 187.194 81.772 183.339C74.0346 175.544 74.0346 162.867 81.772 155.072L86.6185 150.189C87.0436 149.761 87.5538 149.589 88.064 149.589C89.0843 149.589 90.1046 150.36 90.1896 151.56C90.2746 153.872 90.6998 156.271 91.465 158.498C91.7201 159.269 91.55 160.126 90.9549 160.725L89.2543 162.438C85.5982 166.122 85.5132 172.118 89.0843 175.801C90.9549 177.686 93.3356 178.628 95.8014 178.628C98.1821 178.628 100.648 177.686 102.433 175.887L111.191 167.064C113.062 165.265 113.912 162.781 113.912 160.383C113.912 157.984 112.977 155.5 111.191 153.701C110.681 153.187 110.256 152.845 109.831 152.588C109.576 152.416 109.321 152.159 109.15 151.902C108.98 151.645 108.895 151.303 108.895 150.96C108.895 150.617 108.895 150.275 108.98 149.932C109.15 148.904 109.661 147.876 110.426 147.105L113.147 144.364C113.572 143.936 114.082 143.765 114.592 143.765C115.017 143.765 115.442 143.85 115.783 144.107C116.718 144.793 117.653 145.563 118.418 146.334C119.524 147.448 120.459 148.647 121.224 149.932C123.265 153.187 124.2 156.871 124.2 160.468C124.37 165.437 122.415 170.576 118.673 174.431ZM136.954 155.928L132.108 160.811C131.682 161.239 131.172 161.411 130.662 161.411C129.897 161.411 129.217 160.982 128.792 160.297C128.622 160.04 128.536 159.697 128.536 159.355C128.451 157.042 128.026 154.643 127.261 152.416C127.006 151.645 127.176 150.789 127.771 150.275L129.472 148.562C131.087 146.934 132.023 144.964 132.193 142.908C132.533 140.167 131.682 137.34 129.642 135.199C127.771 133.314 125.391 132.372 122.925 132.372C120.544 132.372 118.078 133.314 116.293 135.113L107.535 143.936C105.069 146.42 104.219 150.018 105.154 153.187C105.579 154.729 106.345 156.185 107.535 157.385C108.045 157.898 108.47 158.241 108.895 158.498C109.15 158.669 109.406 158.926 109.576 159.183C109.746 159.44 109.831 159.783 109.831 160.126V160.383C109.831 161.668 109.321 163.038 108.3 164.066L105.494 166.807C105.069 167.235 104.559 167.407 104.049 167.407C103.624 167.407 103.199 167.235 102.859 166.978C101.923 166.293 100.988 165.522 100.138 164.751C92.3153 156.871 92.4853 144.279 100.053 136.569C100.053 136.569 100.053 136.569 100.138 136.483L108.895 127.661C112.722 123.806 117.823 121.836 122.925 121.836C128.026 121.836 133.128 123.806 136.954 127.661C137.804 128.517 138.655 129.545 139.335 130.487C144.606 138.282 143.841 149.076 136.954 155.928Z" fill="url(#paint1_linear_805_2)"/>
<defs>
<linearGradient id="paint0_linear_805_2" x1="269" y1="155.5" x2="127.892" y2="264.948" gradientUnits="userSpaceOnUse">
<stop offset="0.015625" stop-color="#4ADEFF"/>
<stop offset="0.489583" stop-color="#9656FF"/>
<stop offset="0.979167" stop-color="#FF31D2"/>
</linearGradient>
<linearGradient id="paint1_linear_805_2" x1="269" y1="155.5" x2="127.892" y2="264.948" gradientUnits="userSpaceOnUse">
<stop offset="0.015625" stop-color="#4ADEFF"/>
<stop offset="0.489583" stop-color="#9656FF"/>
<stop offset="0.979167" stop-color="#FF31D2"/>
</linearGradient>
</defs>
</svg>
