<svg width="331" height="331" viewBox="0 0 331 331" fill="none" xmlns="http://www.w3.org/2000/svg">
<rect width="330.685" height="330.685" rx="75" fill="#F2F2F2"/>
<path d="M213.668 94.5444C197.144 94.5444 181.885 100.079 169.786 109.334C172.585 112.056 175.203 114.96 177.551 118.045C187.573 110.332 200.124 105.705 213.668 105.705C244.458 105.705 269.921 128.843 272.901 159.421H193.352C193.533 161.326 193.623 163.413 193.623 165.409C193.623 166.861 193.623 168.404 193.533 169.855H285V165.409C284.91 125.939 253.397 94.5444 213.668 94.5444ZM271.456 181.832C263.962 205.696 241.479 223.662 214.481 223.662C201.027 223.662 188.567 219.216 178.544 211.685C176.106 214.951 173.488 218.036 170.688 220.849C182.788 230.104 197.957 235.639 214.481 235.639C247.438 235.639 275.971 213.227 283.465 181.923H271.456V181.832Z" fill="url(#paint0_linear_805_5)"/>
<path d="M187.032 159.511C185.858 145.629 180.711 132.835 172.765 122.31C170.418 119.134 167.799 116.23 164.91 113.508C152.178 101.44 135.023 94 116.151 94C76.8736 94 45 126.03 45 165.5C45 204.97 76.8736 237 116.151 237C135.474 237 152.991 229.287 165.813 216.766C168.702 213.953 171.321 210.868 173.758 207.602C181.524 196.895 186.4 184.01 187.212 169.946C187.302 168.494 187.302 167.043 187.302 165.5C187.302 163.504 187.212 161.417 187.032 159.511ZM125.361 185.553C125.271 185.553 125.271 185.553 125.361 185.553L115.971 194.989C111.907 199.163 106.49 201.159 101.072 201.159C95.6546 201.159 90.3273 199.072 86.1738 194.989C77.9571 186.732 77.9571 173.303 86.1738 165.046L91.3205 159.874C91.772 159.421 92.3138 159.239 92.8555 159.239C93.9391 159.239 95.0226 160.056 95.1129 161.326C95.2032 163.776 95.6546 166.317 96.4673 168.676C96.7382 169.492 96.5576 170.4 95.9255 171.035L94.1196 172.85C90.237 176.751 90.1467 183.103 93.9391 187.004C95.9255 189.001 98.4537 189.999 101.072 189.999C103.6 189.999 106.219 189.001 108.115 187.095L117.415 177.749C119.402 175.844 120.305 173.213 120.305 170.672C120.305 168.131 119.312 165.5 117.415 163.595C116.874 163.05 116.422 162.687 115.971 162.415C115.7 162.233 115.429 161.961 115.248 161.689C115.068 161.417 114.977 161.054 114.977 160.691C114.977 160.328 114.977 159.965 115.068 159.602C115.248 158.513 115.79 157.424 116.603 156.608L119.492 153.704C119.944 153.251 120.485 153.069 121.027 153.069C121.479 153.069 121.93 153.16 122.291 153.432C123.284 154.158 124.278 154.975 125.09 155.791C126.264 156.971 127.257 158.241 128.07 159.602C130.237 163.05 131.23 166.952 131.23 170.763C131.411 176.025 129.334 181.47 125.361 185.553ZM144.774 165.954L139.628 171.126C139.176 171.579 138.634 171.761 138.093 171.761C137.28 171.761 136.558 171.307 136.106 170.581C135.926 170.309 135.835 169.946 135.835 169.583C135.745 167.133 135.293 164.593 134.481 162.233C134.21 161.417 134.391 160.51 135.023 159.965L136.828 158.15C138.544 156.426 139.537 154.339 139.718 152.162C140.079 149.258 139.176 146.264 137.009 143.996C135.023 141.999 132.494 141.001 129.876 141.001C127.348 141.001 124.729 141.999 122.833 143.905L113.533 153.251C110.914 155.882 110.011 159.693 111.005 163.05C111.456 164.683 112.269 166.226 113.533 167.496C114.074 168.041 114.526 168.404 114.977 168.676C115.248 168.857 115.519 169.129 115.7 169.402C115.88 169.674 115.971 170.037 115.971 170.4V170.672C115.971 172.033 115.429 173.485 114.345 174.574L111.366 177.477C110.914 177.931 110.372 178.112 109.831 178.112C109.379 178.112 108.928 177.931 108.567 177.659C107.573 176.933 106.58 176.116 105.677 175.299C97.3702 166.952 97.5508 153.614 105.587 145.447C105.587 145.447 105.587 145.447 105.677 145.357L114.977 136.011C119.041 131.928 124.458 129.841 129.876 129.841C135.293 129.841 140.711 131.928 144.774 136.011C145.677 136.918 146.58 138.007 147.302 139.005C152.901 147.262 152.088 158.695 144.774 165.954Z" fill="url(#paint1_linear_805_5)"/>
<defs>
<linearGradient id="paint0_linear_805_5" x1="285" y1="165.5" x2="135.436" y2="281.801" gradientUnits="userSpaceOnUse">
<stop offset="0.015625" stop-color="#4ADEFF"/>
<stop offset="0.489583" stop-color="#9656FF"/>
<stop offset="0.979167" stop-color="#FF31D2"/>
</linearGradient>
<linearGradient id="paint1_linear_805_5" x1="285" y1="165.5" x2="135.436" y2="281.801" gradientUnits="userSpaceOnUse">
<stop offset="0.015625" stop-color="#4ADEFF"/>
<stop offset="0.489583" stop-color="#9656FF"/>
<stop offset="0.979167" stop-color="#FF31D2"/>
</linearGradient>
</defs>
</svg>
