<svg width="107" height="107" viewBox="0 0 107 107" fill="none" xmlns="http://www.w3.org/2000/svg">
<rect width="107" height="107" fill="url(#paint0_linear_209_165)"/>
<path d="M64.6531 36.1332C60.8664 36.1332 57.3695 37.4879 54.5967 39.7532C55.2381 40.4194 55.8382 41.1301 56.3762 41.8852C58.6731 39.9975 61.5493 38.8648 64.6531 38.8648C71.7092 38.8648 77.5444 44.5279 78.2272 52.0121H59.9974C60.0388 52.4784 60.0594 52.9892 60.0594 53.4778C60.0594 53.8331 60.0594 54.2107 60.0388 54.566H81V53.4778C80.9793 43.8173 73.7577 36.1332 64.6531 36.1332ZM77.8962 57.4975C76.1787 63.3382 71.0263 67.7354 64.8394 67.7354C61.7562 67.7354 58.9007 66.6472 56.6038 64.8039C56.0451 65.6034 55.4451 66.3585 54.8036 67.047C57.5764 69.3122 61.0527 70.6669 64.8394 70.6669C72.392 70.6669 78.9308 65.1815 80.6482 57.5197H77.8962V57.4975Z" fill="white"/>
<path d="M58.5489 52.0343C58.2799 48.6364 57.1005 45.5051 55.2795 42.9289C54.7415 42.1516 54.1415 41.441 53.4793 40.7747C50.5617 37.8211 46.6302 36 42.3055 36C33.3044 36 26 43.8395 26 53.5C26 63.1605 33.3044 71 42.3055 71C46.7336 71 50.7479 69.1123 53.6862 66.0476C54.3484 65.3591 54.9485 64.6041 55.5071 63.8046C57.2867 61.184 58.4041 58.0305 58.5903 54.5882C58.611 54.2329 58.611 53.8775 58.611 53.5C58.611 53.0114 58.5903 52.5006 58.5489 52.0343ZM44.4161 58.408C44.3954 58.408 44.3954 58.408 44.4161 58.408L42.2641 60.7176C41.333 61.7392 40.0914 62.2278 38.8499 62.2278C37.6084 62.2278 36.3875 61.717 35.4357 60.7176C33.5527 58.6967 33.5527 55.4099 35.4357 53.389L36.6151 52.1231C36.7186 52.0121 36.8427 51.9676 36.9669 51.9676C37.2152 51.9676 37.4635 52.1675 37.4842 52.4784C37.5049 53.078 37.6084 53.6999 37.7946 54.2773C37.8567 54.4772 37.8153 54.6992 37.6704 54.8547L37.2566 55.2989C36.3668 56.2538 36.3461 57.8084 37.2152 58.7633C37.6704 59.2519 38.2498 59.4962 38.8499 59.4962C39.4293 59.4962 40.0293 59.2519 40.4639 58.7855L42.5952 56.4981C43.0504 56.0317 43.2573 55.3877 43.2573 54.7659C43.2573 54.144 43.0297 53.5 42.5952 53.0336C42.471 52.9004 42.3676 52.8115 42.2641 52.7449C42.202 52.7005 42.14 52.6339 42.0986 52.5673C42.0572 52.5006 42.0365 52.4118 42.0365 52.323C42.0365 52.2341 42.0365 52.1453 42.0572 52.0565C42.0986 51.79 42.2227 51.5235 42.409 51.3236L43.0711 50.6129C43.1746 50.5019 43.2987 50.4575 43.4229 50.4575C43.5263 50.4575 43.6298 50.4797 43.7126 50.5463C43.9402 50.724 44.1678 50.9239 44.354 51.1237C44.623 51.4124 44.8506 51.7234 45.0369 52.0565C45.5335 52.9004 45.7611 53.8553 45.7611 54.7881C45.8025 56.0761 45.3266 57.4086 44.4161 58.408ZM48.8649 53.611L47.6855 54.8769C47.582 54.9879 47.4579 55.0324 47.3337 55.0324C47.1475 55.0324 46.9819 54.9213 46.8785 54.7437C46.8371 54.677 46.8164 54.5882 46.8164 54.4994C46.7957 53.8997 46.6922 53.2779 46.506 52.7005C46.4439 52.5006 46.4853 52.2786 46.6302 52.1453L47.044 51.7011C47.4372 51.2792 47.6648 50.7684 47.7062 50.2354C47.7889 49.5247 47.582 48.7919 47.0854 48.2367C46.6302 47.7481 46.0508 47.5038 45.4507 47.5038C44.8713 47.5038 44.2713 47.7481 43.8367 48.2145L41.7054 50.5019C41.1053 51.1459 40.8984 52.0787 41.126 52.9004C41.2295 53.3001 41.4157 53.6777 41.7054 53.9886C41.8296 54.1218 41.933 54.2107 42.0365 54.2773C42.0986 54.3217 42.1606 54.3883 42.202 54.4549C42.2434 54.5216 42.2641 54.6104 42.2641 54.6992V54.7659C42.2641 55.099 42.14 55.4543 41.8916 55.7208L41.2088 56.4315C41.1053 56.5425 40.9812 56.5869 40.857 56.5869C40.7536 56.5869 40.6501 56.5425 40.5673 56.4759C40.3397 56.2982 40.1121 56.0983 39.9052 55.8985C38.0015 53.8553 38.0429 50.5907 39.8845 48.592C39.8845 48.592 39.8845 48.592 39.9052 48.5698L42.0365 46.2824C42.9676 45.283 44.2092 44.7722 45.4507 44.7722C46.6923 44.7722 47.9338 45.283 48.8649 46.2824C49.0719 46.5044 49.2788 46.7709 49.4443 47.0152C50.7272 49.0362 50.541 51.8344 48.8649 53.611Z" fill="white"/>
<defs>
<linearGradient id="paint0_linear_209_165" x1="107" y1="-4.52713e-05" x2="-7.00509e-06" y2="107" gradientUnits="userSpaceOnUse">
<stop stop-color="#5216D1"/>
<stop offset="1" stop-color="#9D11F4"/>
</linearGradient>
</defs>
</svg>
